<?xml version="1.0" encoding="UTF-8"?>
<svg id="Layer_1" data-name="Layer 1" xmlns="http://www.w3.org/2000/svg" xmlns:xlink="http://www.w3.org/1999/xlink" viewBox="0 0 318.39 334.81">
  <defs>
    <clipPath id="clippath">
      <rect x="46.37" y="230.05" width="10.24" height="9.19" style="fill: #153b64;"/>
    </clipPath>
    <clipPath id="clippath-1">
      <polygon points="31 230.05 31 248.02 24.52 248.02 24.52 230.05 13.94 230.05 13.94 279.02 24.52 279.02 24.52 258.86 31 258.86 31 279.02 41.58 279.02 41.58 230.05 31 230.05" style="fill: #153b64;"/>
    </clipPath>
    <clipPath id="clippath-2">
      <rect x="46.3" y="241.91" width="10.24" height="37.11" style="fill: #153b64;"/>
    </clipPath>
    <clipPath id="clippath-3">
      <path d="m72.09,268.46c-.36-.23-.66-.69-.91-1.37-.25-.69-.44-1.63-.57-2.85-.13-1.21-.2-2.8-.2-4.77s.07-3.49.2-4.7c.13-1.21.32-2.16.57-2.85.25-.69.55-1.15.91-1.41.36-.25.79-.38,1.28-.38.46,0,.86.13,1.22.38.36.25.66.72.91,1.41.25.69.43,1.64.54,2.85.11,1.21.17,2.78.17,4.7s-.06,3.56-.17,4.77c-.11,1.21-.29,2.16-.54,2.85-.25.69-.55,1.14-.91,1.37-.36.23-.77.34-1.22.34-.49,0-.92-.11-1.28-.34m-6.4-26.58c-1.18.62-2.17,1.65-2.99,3.09-.82,1.44-1.44,3.36-1.88,5.76-.44,2.4-.65,5.38-.65,8.95,0,3.84.27,6.96.82,9.36.55,2.4,1.26,4.26,2.13,5.59.87,1.33,1.84,2.22,2.9,2.67,1.06.46,2.1.69,3.13.69,1.4,0,2.75-.39,4.04-1.17,1.29-.78,2.25-2.24,2.9-4.39h.11v6.86c0,1.05-.1,1.88-.28,2.47-.19.59-.43,1.05-.71,1.37-.28.32-.62.53-.99.62-.38.09-.76.14-1.14.14-.8,0-1.42-.25-1.88-.75-.46-.5-.68-1.21-.68-2.13h-9.21c.04,2.1.37,3.83.99,5.18.63,1.35,1.48,2.41,2.56,3.19,1.08.78,2.34,1.31,3.78,1.61,1.44.3,2.98.45,4.61.45,1.82,0,3.51-.22,5.06-.65,1.55-.43,2.91-1.15,4.07-2.16,1.16-1.01,2.07-2.36,2.73-4.05.66-1.69,1-3.75,1-6.17v-36.49h-9.55v5.14h-.11c-.57-2.24-1.48-3.82-2.73-4.73-1.25-.91-2.6-1.37-4.04-1.37s-2.81.31-3.98.93" style="fill: #153b64;"/>
    </clipPath>
    <clipPath id="clippath-4">
      <path d="m90.37,230.05v48.97h10.24v-24.48c0-1.55.19-2.67.57-3.36.38-.69,1.02-1.03,1.93-1.03s1.55.34,1.93,1.03c.38.69.57,1.81.57,3.36v24.48h10.24v-27.98c0-1.92-.22-3.53-.65-4.84-.44-1.3-1.02-2.34-1.76-3.12-.74-.78-1.59-1.32-2.56-1.65-.97-.32-1.98-.48-3.04-.48-1.25,0-2.53.35-3.84,1.06-1.31.71-2.4,2.05-3.27,4.01h-.11v-15.98h-10.24Z" style="fill: #153b64;"/>
    </clipPath>
    <clipPath id="clippath-5">
      <polygon points="149.68 230.05 145.42 266.95 145.3 266.95 141.04 230.05 129.95 230.05 138.53 279.02 152.18 279.02 160.94 230.05 149.68 230.05" style="fill: #153b64;"/>
    </clipPath>
    <clipPath id="clippath-6">
      <path d="m171.94,271.54c-.36-.32-.65-.91-.88-1.78-.23-.87-.38-2.05-.46-3.53-.08-1.49-.11-3.39-.11-5.73s.04-4.25.11-5.76c.08-1.51.23-2.7.46-3.57.23-.87.52-1.46.88-1.78.36-.32.82-.48,1.39-.48s1.04.16,1.42.48c.38.32.67.92.88,1.78.21.87.35,2.06.43,3.57.07,1.51.11,3.43.11,5.76s-.04,4.24-.11,5.73c-.08,1.49-.22,2.66-.43,3.53-.21.87-.5,1.46-.88,1.78-.38.32-.85.48-1.42.48s-1.03-.16-1.39-.48m-5.52-28.91c-1.73,1.12-3.04,2.6-3.95,4.42-.91,1.83-1.51,3.91-1.79,6.24-.28,2.33-.43,4.71-.43,7.13,0,2.7.12,5.22.37,7.58.25,2.36.81,4.41,1.68,6.17.87,1.76,2.18,3.13,3.92,4.11,1.74.98,4.11,1.48,7.11,1.48s5.18-.54,6.91-1.61c1.72-1.07,3.04-2.51,3.95-4.32.91-1.81,1.51-3.87,1.79-6.21.28-2.33.43-4.71.43-7.13,0-2.7-.12-5.22-.37-7.58-.25-2.35-.8-4.42-1.68-6.21-.87-1.78-2.18-3.19-3.92-4.22-1.74-1.03-4.11-1.54-7.11-1.54s-5.19.56-6.91,1.68" style="fill: #153b64;"/>
    </clipPath>
    <clipPath id="clippath-7">
      <rect x="189.77" y="230.05" width="10.24" height="48.97" style="fill: #153b64;"/>
    </clipPath>
    <clipPath id="clippath-8">
      <path d="m205.75,231.01v10.9h-3.41v8.3h3.41v19.75c0,2.06.16,3.71.48,4.97.32,1.26.83,2.21,1.53,2.85.7.64,1.6,1.04,2.7,1.2,1.1.16,2.43.24,3.98.24.87,0,1.78-.03,2.73-.1.95-.07,1.9-.1,2.84-.1v-8.23h-1.59c-.83,0-1.45-.22-1.85-.65-.4-.43-.6-1.18-.6-2.23v-17.7h4.04v-8.3h-4.04v-10.9h-10.24Z" style="fill: #153b64;"/>
    </clipPath>
    <clipPath id="clippath-9">
      <path d="m231.51,270.58c-.45-.73-.68-1.71-.68-2.95s.15-2.23.45-2.98c.3-.76.85-1.36,1.65-1.82.76-.41,1.45-.67,2.08-.79.63-.11,1.09-.42,1.39-.93h.12v4.46c0,2.06-.25,3.59-.74,4.6-.49,1.01-1.31,1.51-2.44,1.51-.76,0-1.37-.37-1.82-1.1m-1.42-29.18c-1.37.3-2.64.89-3.81,1.78-1.18.89-2.16,2.15-2.96,3.77-.8,1.62-1.19,3.78-1.19,6.48h8.87c.04-1.97.28-3.28.74-3.94.46-.66,1.18-.99,2.16-.99,1.74,0,2.62,1.14,2.62,3.43,0,1.14-.23,2.02-.68,2.64-.45.62-1.23,1.09-2.33,1.41l-4.04,1.16c-1.63.46-2.99,1.02-4.09,1.68-1.1.66-1.97,1.46-2.62,2.4-.65.94-1.11,2.05-1.39,3.33-.28,1.28-.43,2.79-.43,4.53,0,1.6.15,3.06.45,4.39.3,1.33.8,2.47,1.48,3.43.68.96,1.56,1.68,2.64,2.16,1.08.48,2.4.72,3.95.72s3-.41,4.24-1.23c1.23-.82,2.13-2.06,2.7-3.7h.12c.07.78.15,1.51.23,2.19.08.69.21,1.35.4,1.99h9.89c-.42-.96-.68-2.1-.8-3.43-.11-1.33-.17-2.86-.17-4.59v-18.11c0-2.42-.29-4.4-.88-5.93s-1.42-2.74-2.5-3.64c-1.08-.89-2.37-1.51-3.87-1.85-1.5-.34-3.14-.51-4.92-.51-1.18,0-2.45.15-3.81.45" style="fill: #153b64;"/>
    </clipPath>
    <clipPath id="clippath-10">
      <path d="m261.91,268.46c-.36-.23-.66-.69-.91-1.37-.25-.69-.44-1.63-.57-2.85-.13-1.21-.2-2.8-.2-4.77s.07-3.49.2-4.7c.13-1.21.32-2.16.57-2.85.25-.69.55-1.15.91-1.41.36-.25.79-.38,1.28-.38.46,0,.86.13,1.22.38.36.25.66.72.91,1.41.25.69.43,1.64.54,2.85.11,1.21.17,2.78.17,4.7s-.06,3.56-.17,4.77c-.11,1.21-.29,2.16-.54,2.85-.25.69-.55,1.14-.91,1.37-.36.23-.77.34-1.22.34-.49,0-.92-.11-1.28-.34m-6.4-26.58c-1.18.62-2.17,1.65-2.99,3.09-.82,1.44-1.44,3.36-1.88,5.76-.44,2.4-.65,5.38-.65,8.95,0,3.84.28,6.96.82,9.36.55,2.4,1.26,4.26,2.13,5.59.87,1.33,1.84,2.22,2.9,2.67,1.06.46,2.1.69,3.13.69,1.4,0,2.75-.39,4.04-1.17,1.29-.78,2.25-2.24,2.9-4.39h.11v6.86c0,1.05-.09,1.88-.28,2.47-.19.59-.43,1.05-.71,1.37-.28.32-.62.53-.99.62-.38.09-.76.14-1.14.14-.8,0-1.42-.25-1.88-.75-.45-.5-.68-1.21-.68-2.13h-9.21c.04,2.1.37,3.83,1,5.18.63,1.35,1.48,2.41,2.56,3.19,1.08.78,2.34,1.31,3.78,1.61,1.44.3,2.98.45,4.61.45,1.82,0,3.51-.22,5.06-.65,1.55-.43,2.91-1.15,4.07-2.16,1.16-1.01,2.07-2.36,2.73-4.05.66-1.69,1-3.75,1-6.17v-36.49h-9.55v5.14h-.11c-.57-2.24-1.48-3.82-2.73-4.73-1.25-.91-2.6-1.37-4.04-1.37s-2.81.31-3.98.93" style="fill: #153b64;"/>
    </clipPath>
    <clipPath id="clippath-11">
      <path d="m289.51,254.19c0-1.97.2-3.41.6-4.32.4-.91,1.13-1.37,2.19-1.37s1.85.46,2.25,1.37c.4.91.6,2.35.6,4.32v1.65h-5.63v-1.65Zm-3.1-12.17c-1.65.71-3.01,1.84-4.07,3.39-1.06,1.56-1.84,3.57-2.33,6.04-.49,2.47-.74,5.49-.74,9.05s.22,6.52.65,8.98c.44,2.47,1.17,4.47,2.19,6,1.02,1.53,2.37,2.63,4.04,3.29,1.67.66,3.73.99,6.2.99,4.25,0,7.3-1.15,9.16-3.46,1.86-2.31,2.82-5.75,2.9-10.32h-9.21c0,2.52-.26,4.22-.77,5.11-.51.89-1.22,1.34-2.13,1.34-.72,0-1.36-.33-1.93-1-.57-.66-.85-2-.85-4.01v-4.87h15.18v-3.77c0-3.38-.26-6.21-.77-8.47-.51-2.26-1.29-4.09-2.33-5.49-1.04-1.39-2.33-2.39-3.87-2.98-1.53-.59-3.33-.89-5.37-.89-2.31,0-4.29.35-5.94,1.06" style="fill: #153b64;"/>
    </clipPath>
    <clipPath id="clippath-12">
      <path d="m83.81,157.16l25.01,11.61h0s128.08,59.41,128.08,59.41l-.66-24.9-63.95-30.7v.1l-23.08-11.1s.04-.04.06-.05l-3.23-1.55s-.04.04-.06.05l-12.49-6.01s.08-.01.11-.02l-11.62-5.58s.05.06.07.09l-9.28-4.46s-.01-.04-.02-.06l-3.38-1.62s0,.04.01.05l-24.8-11.93-.79,26.66Z" style="fill: #153b64;"/>
    </clipPath>
  </defs>
  <g>
    <path d="m172.3,89.11v2.57m0,4.31v76.7l-23.08-11.1c8.27-6.72,13.84-19.2,13.84-33.5,0-21.41-12.45-38.76-27.81-38.76s-27.81,17.35-27.81,38.76c0,5.07.71,9.91,1.98,14.36l-24.8-11.93-.93,31.36-71.26-29.06,95.41,68.31,1-32.35,128.08,59.42-1.06-40.25,71.26,25.2-94.88-62.22-1.1-72.33s-28.33-11.34-32.83-12.51c-4.31-1.11-6.32-.53-8.68.06l-59.08,13.42,4.54.89,57.24-12.88v20.86m0,4.38v2.26m-52.93,41.21c-2.37-10.38.54-27.53,13.92-27.22,0,0-9.22,6.81-10.75,16.89-1.53,10.08,5.45,18.6,10.78,23.71,0,0-11.51-2.74-13.94-13.38m14.14,17.74c6.7-.51,12.35-6.82,14.69-15.61-3.62-.33-6.49-4.44-6.49-9.46s2.73-8.94,6.22-9.44c-2.59-8.67-8.46-14.73-15.3-14.73-9.23,0-16.71,11.03-16.71,24.64,0,7.7,2.39,14.57,6.15,19.09l-9.28-4.46c-1.47-4.78-2.29-10.13-2.29-15.77,0-20.27,10.58-36.7,23.64-36.7s23.64,16.43,23.64,36.7c0,13.56-4.74,25.39-11.78,31.74l-12.49-6.01Z" style="fill: #153b64;"/>
    <path d="m126.14,87.34v-1.54c0-.51-.45-.93-1-.93s-1,.42-1,.93v1.54c0,.51.45.93,1,.93s1-.42,1-.93" style="fill: #153b64;"/>
    <path d="m132.63,85.55v-1.54c0-.51-.45-.93-1-.93s-1,.42-1,.93v1.54c0,.51.45.93,1,.93s1-.42,1-.93" style="fill: #153b64;"/>
    <path d="m140.08,83.72v-1.54c0-.51-.45-.93-1-.93s-1,.42-1,.93v1.54c0,.51.45.93,1,.93s1-.42,1-.93" style="fill: #153b64;"/>
    <polyline points="172.3 88.43 149.44 91.51 171.35 89.97 172.3 89.11" style="fill: #153b64;"/>
    <polyline points="172.3 91.68 154.66 94.05 172.3 92.81" style="fill: #153b64;"/>
    <polyline points="172.3 95.08 160.37 96.81 172.3 95.98" style="fill: #153b64;"/>
    <polygon points="146.32 87.36 165.71 84.71 165.71 73.51 144.49 76.97 145.29 84.87 146.35 77.9 163.45 74.54 147.25 79.58 146.32 87.36" style="fill: #153b64;"/>
  </g>
  <path d="m253.55,94.05c0,46.68-40.33,84.53-90.07,84.53s-90.07-37.85-90.07-84.53S113.73,9.52,163.48,9.52s90.07,37.84,90.07,84.53M163.52,19.38c-46.44,0-84.08,35.64-84.08,79.6s37.64,79.6,84.08,79.6,84.08-35.64,84.08-79.6S209.95,19.38,163.52,19.38" style="fill: #153b64;"/>
  <g>
    <g>
      <rect x="46.37" y="230.05" width="10.24" height="9.19" style="fill: #153b64;"/>
      <g style="clip-path: url(#clippath); fill: none;">
        <polygon points="61.54 233.26 53.04 243.58 41.44 236.04 49.94 225.71 61.54 233.26" style="fill: #153b64;"/>
      </g>
    </g>
    <g>
      <g>
        <polygon points="31 230.05 31 248.02 24.52 248.02 24.52 230.05 13.94 230.05 13.94 279.02 24.52 279.02 24.52 258.86 31 258.86 31 279.02 41.58 279.02 41.58 230.05 31 230.05" style="fill: #153b64;"/>
        <g style="clip-path: url(#clippath-1); fill: none;">
          <polygon points="67.84 247.13 31.94 290.72 -12.32 261.94 23.58 218.34 67.84 247.13" style="fill: #153b64;"/>
        </g>
      </g>
      <g>
        <rect x="46.3" y="241.91" width="10.24" height="37.11" style="fill: #153b64;"/>
        <g style="clip-path: url(#clippath-2); fill: none;">
          <polygon points="76.43 254.86 52.96 283.35 26.4 266.08 49.87 237.58 76.43 254.86" style="fill: #153b64;"/>
        </g>
      </g>
      <g>
        <path d="m72.09,268.46c-.36-.23-.66-.69-.91-1.37-.25-.69-.44-1.63-.57-2.85-.13-1.21-.2-2.8-.2-4.77s.07-3.49.2-4.7c.13-1.21.32-2.16.57-2.85.25-.69.55-1.15.91-1.41.36-.25.79-.38,1.28-.38.46,0,.86.13,1.22.38.36.25.66.72.91,1.41.25.69.43,1.64.54,2.85.11,1.21.17,2.78.17,4.7s-.06,3.56-.17,4.77c-.11,1.21-.29,2.16-.54,2.85-.25.69-.55,1.14-.91,1.37-.36.23-.77.34-1.22.34-.49,0-.92-.11-1.28-.34m-6.4-26.58c-1.18.62-2.17,1.65-2.99,3.09-.82,1.44-1.44,3.36-1.88,5.76-.44,2.4-.65,5.38-.65,8.95,0,3.84.27,6.96.82,9.36.55,2.4,1.26,4.26,2.13,5.59.87,1.33,1.84,2.22,2.9,2.67,1.06.46,2.1.69,3.13.69,1.4,0,2.75-.39,4.04-1.17,1.29-.78,2.25-2.24,2.9-4.39h.11v6.86c0,1.05-.1,1.88-.28,2.47-.19.59-.43,1.05-.71,1.37-.28.32-.62.53-.99.62-.38.09-.76.14-1.14.14-.8,0-1.42-.25-1.88-.75-.46-.5-.68-1.21-.68-2.13h-9.21c.04,2.1.37,3.83.99,5.18.63,1.35,1.48,2.41,2.56,3.19,1.08.78,2.34,1.31,3.78,1.61,1.44.3,2.98.45,4.61.45,1.82,0,3.51-.22,5.06-.65,1.55-.43,2.91-1.15,4.07-2.16,1.16-1.01,2.07-2.36,2.73-4.05.66-1.69,1-3.75,1-6.17v-36.49h-9.55v5.14h-.11c-.57-2.24-1.48-3.82-2.73-4.73-1.25-.91-2.6-1.37-4.04-1.37s-2.81.31-3.98.93" style="fill: #153b64;"/>
        <g style="clip-path: url(#clippath-3); fill: none;">
          <polygon points="113.18 258.56 77.06 302.42 33.1 273.83 69.22 229.97 113.18 258.56" style="fill: #153b64;"/>
        </g>
      </g>
      <g>
        <path d="m90.37,230.05v48.97h10.24v-24.48c0-1.55.19-2.67.57-3.36.38-.69,1.02-1.03,1.93-1.03s1.55.34,1.93,1.03c.38.69.57,1.81.57,3.36v24.48h10.24v-27.98c0-1.92-.22-3.53-.65-4.84-.44-1.3-1.02-2.34-1.76-3.12-.74-.78-1.59-1.32-2.56-1.65-.97-.32-1.98-.48-3.04-.48-1.25,0-2.53.35-3.84,1.06-1.31.71-2.4,2.05-3.27,4.01h-.11v-15.98h-10.24Z" style="fill: #153b64;"/>
        <g style="clip-path: url(#clippath-4); fill: none;">
          <polygon points="142.11 247.13 106.96 289.81 64.11 261.94 99.25 219.26 142.11 247.13" style="fill: #153b64;"/>
        </g>
      </g>
      <g>
        <polygon points="149.68 230.05 145.42 266.95 145.3 266.95 141.04 230.05 129.95 230.05 138.53 279.02 152.18 279.02 160.94 230.05 149.68 230.05" style="fill: #153b64;"/>
        <g style="clip-path: url(#clippath-5); fill: none;">
          <polygon points="187.2 247.13 150.13 292.15 103.69 261.94 140.76 216.92 187.2 247.13" style="fill: #153b64;"/>
        </g>
      </g>
      <g>
        <path d="m171.94,271.54c-.36-.32-.65-.91-.88-1.78-.23-.87-.38-2.05-.46-3.53-.08-1.49-.11-3.39-.11-5.73s.04-4.25.11-5.76c.08-1.51.23-2.7.46-3.57.23-.87.52-1.46.88-1.78.36-.32.82-.48,1.39-.48s1.04.16,1.42.48c.38.32.67.92.88,1.78.21.87.35,2.06.43,3.57.07,1.51.11,3.43.11,5.76s-.04,4.24-.11,5.73c-.08,1.49-.22,2.66-.43,3.53-.21.87-.5,1.46-.88,1.78-.38.32-.85.48-1.42.48s-1.03-.16-1.39-.48m-5.52-28.91c-1.73,1.12-3.04,2.6-3.95,4.42-.91,1.83-1.51,3.91-1.79,6.24-.28,2.33-.43,4.71-.43,7.13,0,2.7.12,5.22.37,7.58.25,2.36.81,4.41,1.68,6.17.87,1.76,2.18,3.13,3.92,4.11,1.74.98,4.11,1.48,7.11,1.48s5.18-.54,6.91-1.61c1.72-1.07,3.04-2.51,3.95-4.32.91-1.81,1.51-3.87,1.79-6.21.28-2.33.43-4.71.43-7.13,0-2.7-.12-5.22-.37-7.58-.25-2.35-.8-4.42-1.68-6.21-.87-1.78-2.18-3.19-3.92-4.22-1.74-1.03-4.11-1.54-7.11-1.54s-5.19.56-6.91,1.68" style="fill: #153b64;"/>
        <g style="clip-path: url(#clippath-6); fill: none;">
          <polygon points="207.24 254.49 177.29 290.85 139.44 266.23 169.38 229.88 207.24 254.49" style="fill: #153b64;"/>
        </g>
      </g>
      <g>
        <rect x="189.77" y="230.05" width="10.24" height="48.97" style="fill: #153b64;"/>
        <g style="clip-path: url(#clippath-7); fill: none;">
          <polygon points="226.27 247.13 196.44 283.35 163.51 261.94 193.34 225.71 226.27 247.13" style="fill: #153b64;"/>
        </g>
      </g>
      <g>
        <path d="m205.75,231.01v10.9h-3.41v8.3h3.41v19.75c0,2.06.16,3.71.48,4.97.32,1.26.83,2.21,1.53,2.85.7.64,1.6,1.04,2.7,1.2,1.1.16,2.43.24,3.98.24.87,0,1.78-.03,2.73-.1.95-.07,1.9-.1,2.84-.1v-8.23h-1.59c-.83,0-1.45-.22-1.85-.65-.4-.43-.6-1.18-.6-2.23v-17.7h4.04v-8.3h-4.04v-10.9h-10.24Z" style="fill: #153b64;"/>
        <g style="clip-path: url(#clippath-8); fill: none;">
          <polygon points="245.88 247.83 213.86 286.72 176.48 262.41 208.51 223.52 245.88 247.83" style="fill: #153b64;"/>
        </g>
      </g>
      <g>
        <path d="m231.51,270.58c-.45-.73-.68-1.71-.68-2.95s.15-2.23.45-2.98c.3-.76.85-1.36,1.65-1.82.76-.41,1.45-.67,2.08-.79.63-.11,1.09-.42,1.39-.93h.12v4.46c0,2.06-.25,3.59-.74,4.6-.49,1.01-1.31,1.51-2.44,1.51-.76,0-1.37-.37-1.82-1.1m-1.42-29.18c-1.37.3-2.64.89-3.81,1.78-1.18.89-2.16,2.15-2.96,3.77-.8,1.62-1.19,3.78-1.19,6.48h8.87c.04-1.97.28-3.28.74-3.94.46-.66,1.18-.99,2.16-.99,1.74,0,2.62,1.14,2.62,3.43,0,1.14-.23,2.02-.68,2.64-.45.62-1.23,1.09-2.33,1.41l-4.04,1.16c-1.63.46-2.99,1.02-4.09,1.68-1.1.66-1.97,1.46-2.62,2.4-.65.94-1.11,2.05-1.39,3.33-.28,1.28-.43,2.79-.43,4.53,0,1.6.15,3.06.45,4.39.3,1.33.8,2.47,1.48,3.43.68.96,1.56,1.68,2.64,2.16,1.08.48,2.4.72,3.95.72s3-.41,4.24-1.23c1.23-.82,2.13-2.06,2.7-3.7h.12c.07.78.15,1.51.23,2.19.08.69.21,1.35.4,1.99h9.89c-.42-.96-.68-2.1-.8-3.43-.11-1.33-.17-2.86-.17-4.59v-18.11c0-2.42-.29-4.4-.88-5.93s-1.42-2.74-2.5-3.64c-1.08-.89-2.37-1.51-3.87-1.85-1.5-.34-3.14-.51-4.92-.51-1.18,0-2.45.15-3.81.45" style="fill: #153b64;"/>
        <g style="clip-path: url(#clippath-9); fill: none;">
          <polygon points="267.85 254.49 237.93 290.83 200.11 266.23 230.04 229.9 267.85 254.49" style="fill: #153b64;"/>
        </g>
      </g>
      <g>
        <path d="m261.91,268.46c-.36-.23-.66-.69-.91-1.37-.25-.69-.44-1.63-.57-2.85-.13-1.21-.2-2.8-.2-4.77s.07-3.49.2-4.7c.13-1.21.32-2.16.57-2.85.25-.69.55-1.15.91-1.41.36-.25.79-.38,1.28-.38.46,0,.86.13,1.22.38.36.25.66.72.91,1.41.25.69.43,1.64.54,2.85.11,1.21.17,2.78.17,4.7s-.06,3.56-.17,4.77c-.11,1.21-.29,2.16-.54,2.85-.25.69-.55,1.14-.91,1.37-.36.23-.77.34-1.22.34-.49,0-.92-.11-1.28-.34m-6.4-26.58c-1.18.62-2.17,1.65-2.99,3.09-.82,1.44-1.44,3.36-1.88,5.76-.44,2.4-.65,5.38-.65,8.95,0,3.84.28,6.96.82,9.36.55,2.4,1.26,4.26,2.13,5.59.87,1.33,1.84,2.22,2.9,2.67,1.06.46,2.1.69,3.13.69,1.4,0,2.75-.39,4.04-1.17,1.29-.78,2.25-2.24,2.9-4.39h.11v6.86c0,1.05-.09,1.88-.28,2.47-.19.59-.43,1.05-.71,1.37-.28.32-.62.53-.99.62-.38.09-.76.14-1.14.14-.8,0-1.42-.25-1.88-.75-.45-.5-.68-1.21-.68-2.13h-9.21c.04,2.1.37,3.83,1,5.18.63,1.35,1.48,2.41,2.56,3.19,1.08.78,2.34,1.31,3.78,1.61,1.44.3,2.98.45,4.61.45,1.82,0,3.51-.22,5.06-.65,1.55-.43,2.91-1.15,4.07-2.16,1.16-1.01,2.07-2.36,2.73-4.05.66-1.69,1-3.75,1-6.17v-36.49h-9.55v5.14h-.11c-.57-2.24-1.48-3.82-2.73-4.73-1.25-.91-2.6-1.37-4.04-1.37s-2.81.31-3.98.93" style="fill: #153b64;"/>
        <g style="clip-path: url(#clippath-10); fill: none;">
          <polygon points="303 258.56 266.88 302.42 222.92 273.83 259.04 229.97 303 258.56" style="fill: #153b64;"/>
        </g>
      </g>
      <g>
        <path d="m289.51,254.19c0-1.97.2-3.41.6-4.32.4-.91,1.13-1.37,2.19-1.37s1.85.46,2.25,1.37c.4.91.6,2.35.6,4.32v1.65h-5.63v-1.65Zm-3.1-12.17c-1.65.71-3.01,1.84-4.07,3.39-1.06,1.56-1.84,3.57-2.33,6.04-.49,2.47-.74,5.49-.74,9.05s.22,6.52.65,8.98c.44,2.47,1.17,4.47,2.19,6,1.02,1.53,2.37,2.63,4.04,3.29,1.67.66,3.73.99,6.2.99,4.25,0,7.3-1.15,9.16-3.46,1.86-2.31,2.82-5.75,2.9-10.32h-9.21c0,2.52-.26,4.22-.77,5.11-.51.89-1.22,1.34-2.13,1.34-.72,0-1.36-.33-1.93-1-.57-.66-.85-2-.85-4.01v-4.87h15.18v-3.77c0-3.38-.26-6.21-.77-8.47-.51-2.26-1.29-4.09-2.33-5.49-1.04-1.39-2.33-2.39-3.87-2.98-1.53-.59-3.33-.89-5.37-.89-2.31,0-4.29.35-5.94,1.06" style="fill: #153b64;"/>
        <g style="clip-path: url(#clippath-11); fill: none;">
          <polygon points="325.52 254.49 295.83 290.54 258.46 266.23 288.14 230.19 325.52 254.49" style="fill: #153b64;"/>
        </g>
      </g>
    </g>
  </g>
  <g>
    <polygon points="14.01 299.47 17.47 299.47 17.47 310.49 23.52 310.49 23.52 313.07 14.01 313.07 14.01 299.47" style="fill: #153b64;"/>
    <path d="m63.34,309.58l-1.08,3.49h-3.57l4.66-13.6h4.52l4.72,13.6h-3.71l-1.18-3.49h-4.36Zm3.87-2.3l-.95-2.88c-.27-.81-.54-1.82-.77-2.62h-.05c-.23.81-.45,1.84-.7,2.62l-.9,2.88h3.37Z" style="fill: #153b64;"/>
    <path d="m109.74,299.47v7.83c0,2.34.99,3.53,2.76,3.53s2.8-1.13,2.8-3.53v-7.83h3.44v7.63c0,4.2-2.37,6.19-6.35,6.19s-6.1-1.9-6.1-6.23v-7.59h3.46Z" style="fill: #153b64;"/>
    <path d="m153.08,313.07v-13.6h4.02l3.16,4.98c.9,1.43,1.81,3.13,2.49,4.66h.07c-.23-1.8-.29-3.63-.29-5.67v-3.97h3.16v13.6h-3.62l-3.25-5.25c-.9-1.45-1.9-3.21-2.64-4.8l-.07.02c.09,1.8.14,3.71.14,5.93v4.09h-3.16Z" style="fill: #153b64;"/>
    <path d="m199.52,299.65c1.27-.18,2.92-.28,4.66-.28,2.89,0,4.77.46,6.24,1.45,1.58,1.05,2.58,2.72,2.58,5.13,0,2.6-1.06,4.4-2.53,5.51-1.6,1.19-4.05,1.76-7.03,1.76-1.78,0-3.05-.1-3.91-.2v-13.36Zm3.46,11.1c.29.06.77.06,1.2.06,3.12.02,5.15-1.51,5.15-4.76.02-2.82-1.83-4.32-4.79-4.32-.77,0-1.27.06-1.56.12v8.9Z" style="fill: #153b64;"/>
    <path d="m247.37,299.65c1.11-.16,2.76-.28,4.59-.28,2.26,0,3.84.3,4.93,1.07.9.65,1.4,1.59,1.4,2.85,0,1.74-1.38,2.93-2.69,3.35v.06c1.06.38,1.65,1.29,2.03,2.54.47,1.53.95,3.31,1.24,3.83h-3.53c-.25-.38-.61-1.49-1.06-3.17-.41-1.7-1.06-2.16-2.46-2.18h-1.04v5.35h-3.41v-13.42Zm3.41,5.85h1.36c1.72,0,2.73-.77,2.73-1.96,0-1.25-.95-1.88-2.53-1.9-.84,0-1.31.06-1.56.1v3.75Z" style="fill: #153b64;"/>
    <path d="m298.18,313.07v-5.57l-4.81-8.03h3.93l1.56,3.27c.48.99.79,1.72,1.18,2.6h.05c.34-.85.7-1.63,1.15-2.6l1.54-3.27h3.87l-5.02,7.93v5.67h-3.44Z" style="fill: #153b64;"/>
  </g>
  <g>
    <path d="m83.81,157.16l25.01,11.61h0s128.08,59.41,128.08,59.41l-.66-24.9-63.95-30.7v.1l-23.08-11.1s.04-.04.06-.05l-3.23-1.55s-.04.04-.06.05l-12.49-6.01s.08-.01.11-.02l-11.62-5.58s.05.06.07.09l-9.28-4.46s-.01-.04-.02-.06l-3.38-1.62s0,.04.01.05l-24.8-11.93-.79,26.66Z" style="fill: #153b64;"/>
    <g style="clip-path: url(#clippath-12); fill: none;">
      <polygon points="287.14 192.79 139.29 296.96 33.58 165.9 181.43 61.72 287.14 192.79" style="fill: #153b64;"/>
    </g>
  </g>
</svg>